<svg width="20" height="17" viewBox="0 0 20 17" fill="none" xmlns="http://www.w3.org/2000/svg">
<path d="M10.7489 16.3166C10.637 16.2061 10.5483 16.0747 10.4877 15.93C10.4272 15.7854 10.396 15.6303 10.396 15.4736C10.396 15.317 10.4272 15.1619 10.4877 15.0172C10.5483 14.8726 10.637 14.7412 10.7489 14.6306L15.8969 9.52402L1.19976 9.52402C0.881567 9.52402 0.576402 9.39863 0.351404 9.17544C0.126403 8.95225 -3.78083e-07 8.64954 -3.64286e-07 8.3339C-3.50489e-07 8.01826 0.126403 7.71554 0.351404 7.49235C0.576402 7.26916 0.881567 7.14378 1.19976 7.14378L15.8969 7.14378L10.7489 2.03519C10.5235 1.81161 10.3969 1.50837 10.3969 1.19218C10.3969 0.875997 10.5235 0.57276 10.7489 0.349182C10.9743 0.125605 11.28 -3.77833e-07 11.5987 -3.67232e-07C11.9175 -3.56631e-07 12.2232 0.125605 12.4485 0.349183L19.6471 7.4899C19.759 7.60047 19.8477 7.73185 19.9083 7.87651C19.9688 8.02117 20 8.17627 20 8.3329C20 8.48954 19.9688 8.64464 19.9083 8.7893C19.8477 8.93396 19.759 9.06534 19.6471 9.17591L12.4485 16.3166C12.3371 16.4276 12.2046 16.5156 12.0588 16.5757C11.913 16.6357 11.7566 16.6667 11.5987 16.6667C11.4408 16.6667 11.2845 16.6357 11.1386 16.5757C10.9928 16.5156 10.8603 16.4276 10.7489 16.3166Z" fill="#16A34A"/>
</svg>
