<svg width="22" height="16" viewBox="0 0 22 16" fill="none" xmlns="http://www.w3.org/2000/svg">
<path fill-rule="evenodd" clip-rule="evenodd" d="M10.4974 0.0706403C10.7329 -0.0235468 10.9955 -0.0235468 11.231 0.0706403L21.1075 4.02126C21.4825 4.17125 21.7284 4.53442 21.7284 4.93827V10.8642C21.7284 11.4097 21.2862 11.8519 20.7407 11.8519C20.1953 11.8519 19.7531 11.4097 19.7531 10.8642V6.39707L11.231 9.8059C10.9955 9.90009 10.7329 9.90009 10.4974 9.8059L0.620849 5.85529C0.245877 5.7053 0 5.34213 0 4.93827C0 4.53442 0.245877 4.17125 0.620849 4.02126L10.4974 0.0706403ZM18.0814 4.93827L10.8642 7.82515L3.647 4.93827L10.8642 2.05139L18.0814 4.93827Z" fill="white"/>
<path fill-rule="evenodd" clip-rule="evenodd" d="M4.10261 4.14807C4.732 4.14807 5.24221 4.65829 5.24221 5.28767V11.4415C5.24221 11.698 5.47387 12.2691 6.61495 12.8397C7.70272 13.3836 9.25808 13.7207 10.9402 13.7207C12.6224 13.7207 14.1777 13.3836 15.2655 12.8397C16.4066 12.2691 16.6382 11.698 16.6382 11.4415V5.28767C16.6382 4.65829 17.1484 4.14807 17.7778 4.14807C18.4072 4.14807 18.9174 4.65829 18.9174 5.28767V11.4415C18.9174 12.9985 17.7083 14.1665 16.2848 14.8783C14.808 15.6167 12.885 15.9999 10.9402 15.9999C8.99547 15.9999 7.07249 15.6167 5.59566 14.8783C4.17214 14.1665 2.96301 12.9985 2.96301 11.4415V5.28767C2.96301 4.65829 3.47323 4.14807 4.10261 4.14807Z" fill="white"/>
</svg>
