<svg width="35" height="35" viewBox="0 0 35 35" fill="none" xmlns="http://www.w3.org/2000/svg">
<path d="M7.83437 34.9992H0.578125V11.632H7.83437V34.9992ZM4.20234 8.44453C1.88203 8.44453 0 6.52266 0 4.20234C1.66078e-08 3.08781 0.442746 2.01893 1.23084 1.23084C2.01893 0.442746 3.08781 0 4.20234 0C5.31687 0 6.38576 0.442746 7.17385 1.23084C7.96194 2.01893 8.40469 3.08781 8.40469 4.20234C8.40469 6.52266 6.52188 8.44453 4.20234 8.44453ZM34.9922 34.9992H27.7516V23.6242C27.7516 20.9133 27.6969 17.4367 23.9789 17.4367C20.2062 17.4367 19.6281 20.382 19.6281 23.4289V34.9992H12.3797V11.632H19.3391V14.8195H19.4406C20.4094 12.9836 22.7758 11.0461 26.3063 11.0461C33.65 11.0461 35 15.882 35 22.1633V34.9992H34.9922Z" fill="white"/>
</svg>
