<svg width="50" height="45" viewBox="0 0 50 45" fill="none" xmlns="http://www.w3.org/2000/svg">
<path d="M31.3037 42.8909H29.6739C29.6739 43.1612 29.7582 43.4261 29.9173 43.656C30.0764 43.886 30.3041 44.0718 30.5748 44.1926C30.8455 44.3135 31.1486 44.3647 31.45 44.3404C31.7515 44.3161 32.0394 44.2174 32.2815 44.0552L31.3037 42.8909ZM37.8228 38.5246L38.8007 37.3603C38.5186 37.1713 38.1754 37.0692 37.8228 37.0692C37.4702 37.0692 37.127 37.1713 36.8449 37.3603L37.8228 38.5246ZM44.3419 42.8909L43.3641 44.0552C43.6062 44.2174 43.8941 44.3161 44.1956 44.3404C44.497 44.3647 44.8001 44.3135 45.0708 44.1926C45.3415 44.0718 45.5692 43.886 45.7283 43.656C45.8874 43.4261 45.9717 43.1612 45.9717 42.8909H44.3419ZM37.8228 32.7029C35.6616 32.7029 33.5889 31.9362 32.0606 30.5715C30.5324 29.2068 29.6739 27.3558 29.6739 25.4258H26.4143C26.4143 28.1278 27.6163 30.7192 29.7558 32.6298C31.8953 34.5404 34.7971 35.6138 37.8228 35.6138V32.7029ZM45.9717 25.4258C45.9717 27.3558 45.1132 29.2068 43.5849 30.5715C42.0567 31.9362 39.984 32.7029 37.8228 32.7029V35.6138C40.8485 35.6138 43.7503 34.5404 45.8898 32.6298C48.0293 30.7192 49.2313 28.1278 49.2313 25.4258H45.9717ZM37.8228 18.1487C39.984 18.1487 42.0567 18.9154 43.5849 20.2801C45.1132 21.6448 45.9717 23.4958 45.9717 25.4258H49.2313C49.2313 22.7238 48.0293 20.1324 45.8898 18.2218C43.7503 16.3112 40.8485 15.2378 37.8228 15.2378V18.1487ZM37.8228 15.2378C34.7971 15.2378 31.8953 16.3112 29.7558 18.2218C27.6163 20.1324 26.4143 22.7238 26.4143 25.4258H29.6739C29.6739 23.4958 30.5324 21.6448 32.0606 20.2801C33.5889 18.9154 35.6616 18.1487 37.8228 18.1487V15.2378ZM29.6739 31.2475V42.8909H32.9334V31.2475H29.6739ZM32.2815 44.0552L38.8007 39.6889L36.8449 37.3603L30.3258 41.7265L32.2815 44.0552ZM36.8449 39.6889L43.3641 44.0552L45.3198 41.7265L38.8007 37.3603L36.8449 39.6889ZM45.9717 42.8909V31.2475H42.7121V42.8909H45.9717ZM49.2313 15.2378V5.04986H45.9717V15.2378H49.2313ZM44.3419 0.683594H5.22712V3.59444H44.3419V0.683594ZM0.337769 5.04986V39.98H3.59734V5.04986H0.337769ZM5.22712 44.3463H26.4143V41.4354H5.22712V44.3463ZM0.337769 39.98C0.337769 41.138 0.852895 42.2486 1.76983 43.0674C2.68676 43.8863 3.93038 44.3463 5.22712 44.3463V41.4354C4.79487 41.4354 4.38033 41.2821 4.07469 41.0092C3.76904 40.7362 3.59734 40.366 3.59734 39.98H0.337769ZM5.22712 0.683594C3.93038 0.683594 2.68676 1.14361 1.76983 1.96244C0.852895 2.78128 0.337769 3.89186 0.337769 5.04986H3.59734C3.59734 4.66386 3.76904 4.29367 4.07469 4.02072C4.38033 3.74778 4.79487 3.59444 5.22712 3.59444V0.683594ZM49.2313 5.04986C49.2313 3.89186 48.7162 2.78128 47.7992 1.96244C46.8823 1.14361 45.6387 0.683594 44.3419 0.683594V3.59444C44.7742 3.59444 45.1887 3.74778 45.4944 4.02072C45.8 4.29367 45.9717 4.66386 45.9717 5.04986H49.2313ZM10.1165 15.2378H26.4143V12.327H10.1165V15.2378ZM10.1165 23.9704H19.8952V21.0595H10.1165V23.9704Z" fill="white"/>
</svg>
