<svg width="201" height="47" viewBox="0 0 201 47" fill="none" xmlns="http://www.w3.org/2000/svg">
<path d="M6.05966 38.5H5.26705C5.22017 38.272 5.13814 38.0717 5.02095 37.8991C4.90589 37.7266 4.76527 37.5817 4.59908 37.4645C4.43501 37.3452 4.25284 37.2557 4.05256 37.196C3.85227 37.1364 3.64347 37.1065 3.42614 37.1065C3.02983 37.1065 2.67081 37.2067 2.34908 37.407C2.02947 37.6072 1.77486 37.9023 1.58523 38.2923C1.39773 38.6822 1.30398 39.1605 1.30398 39.7273C1.30398 40.294 1.39773 40.7724 1.58523 41.1623C1.77486 41.5522 2.02947 41.8473 2.34908 42.0476C2.67081 42.2479 3.02983 42.348 3.42614 42.348C3.64347 42.348 3.85227 42.3182 4.05256 42.2585C4.25284 42.1989 4.43501 42.1104 4.59908 41.9933C4.76527 41.8739 4.90589 41.728 5.02095 41.5554C5.13814 41.3807 5.22017 41.1804 5.26705 40.9545H6.05966C6 41.2891 5.89134 41.5884 5.73366 41.8526C5.57599 42.1168 5.37997 42.3416 5.1456 42.527C4.91122 42.7102 4.64808 42.8498 4.35618 42.9457C4.06641 43.0415 3.75639 43.0895 3.42614 43.0895C2.8679 43.0895 2.37145 42.9531 1.93679 42.6804C1.50213 42.4077 1.16016 42.0199 0.910867 41.517C0.661577 41.0142 0.536932 40.4176 0.536932 39.7273C0.536932 39.0369 0.661577 38.4403 0.910867 37.9375C1.16016 37.4347 1.50213 37.0469 1.93679 36.7741C2.37145 36.5014 2.8679 36.3651 3.42614 36.3651C3.75639 36.3651 4.06641 36.413 4.35618 36.5089C4.64808 36.6048 4.91122 36.7454 5.1456 36.9308C5.37997 37.114 5.57599 37.3377 5.73366 37.6019C5.89134 37.864 6 38.1634 6.05966 38.5ZM13.8532 39.7273C13.8532 40.4176 13.7285 41.0142 13.4793 41.517C13.23 42.0199 12.888 42.4077 12.4533 42.6804C12.0187 42.9531 11.5222 43.0895 10.964 43.0895C10.4057 43.0895 9.9093 42.9531 9.47464 42.6804C9.03998 42.4077 8.69801 42.0199 8.44872 41.517C8.19943 41.0142 8.07478 40.4176 8.07478 39.7273C8.07478 39.0369 8.19943 38.4403 8.44872 37.9375C8.69801 37.4347 9.03998 37.0469 9.47464 36.7741C9.9093 36.5014 10.4057 36.3651 10.964 36.3651C11.5222 36.3651 12.0187 36.5014 12.4533 36.7741C12.888 37.0469 13.23 37.4347 13.4793 37.9375C13.7285 38.4403 13.8532 39.0369 13.8532 39.7273ZM13.0861 39.7273C13.0861 39.1605 12.9913 38.6822 12.8017 38.2923C12.6142 37.9023 12.3596 37.6072 12.0379 37.407C11.7182 37.2067 11.3603 37.1065 10.964 37.1065C10.5677 37.1065 10.2087 37.2067 9.88693 37.407C9.56733 37.6072 9.31271 37.9023 9.12308 38.2923C8.93558 38.6822 8.84183 39.1605 8.84183 39.7273C8.84183 40.294 8.93558 40.7724 9.12308 41.1623C9.31271 41.5522 9.56733 41.8473 9.88693 42.0476C10.2087 42.2479 10.5677 42.348 10.964 42.348C11.3603 42.348 11.7182 42.2479 12.0379 42.0476C12.3596 41.8473 12.6142 41.5522 12.8017 41.1623C12.9913 40.7724 13.0861 40.294 13.0861 39.7273ZM21.3663 36.4545V43H20.5992L17.0325 37.8608H16.9685V43H16.1759V36.4545H16.943L20.5225 41.6065H20.5864V36.4545H21.3663ZM27.5218 38.0909C27.4835 37.767 27.328 37.5156 27.0552 37.3366C26.7825 37.1577 26.448 37.0682 26.0517 37.0682C25.7619 37.0682 25.5084 37.1151 25.291 37.2088C25.0758 37.3026 24.9075 37.4315 24.7861 37.5955C24.6667 37.7596 24.6071 37.946 24.6071 38.1548C24.6071 38.3295 24.6486 38.4798 24.7317 38.6055C24.8169 38.729 24.9256 38.8324 25.0577 38.9155C25.1898 38.9964 25.3283 39.0636 25.4732 39.1168C25.6181 39.168 25.7512 39.2095 25.8727 39.2415L26.5375 39.4205C26.7079 39.4652 26.8976 39.527 27.1064 39.6058C27.3173 39.6847 27.5186 39.7923 27.7104 39.9286C27.9043 40.0629 28.0641 40.2354 28.1898 40.4464C28.3155 40.6573 28.3784 40.9162 28.3784 41.223C28.3784 41.5767 28.2857 41.8963 28.1003 42.1818C27.9171 42.4673 27.6486 42.6942 27.2949 42.8626C26.9434 43.0309 26.5162 43.1151 26.0133 43.1151C25.5446 43.1151 25.1387 43.0394 24.7956 42.8881C24.4547 42.7369 24.1863 42.5259 23.9902 42.2553C23.7963 41.9847 23.6866 41.6705 23.6611 41.3125H24.4792C24.5005 41.5597 24.5836 41.7642 24.7285 41.9261C24.8755 42.0859 25.0609 42.2053 25.2846 42.2841C25.5105 42.3608 25.7534 42.3991 26.0133 42.3991C26.3159 42.3991 26.5875 42.3501 26.8283 42.2521C27.0691 42.152 27.2598 42.0135 27.4004 41.8366C27.541 41.6577 27.6113 41.4489 27.6113 41.2102C27.6113 40.9929 27.5506 40.8161 27.4292 40.6797C27.3077 40.5433 27.1479 40.4325 26.9498 40.3473C26.7516 40.2621 26.5375 40.1875 26.3074 40.1236L25.502 39.8935C24.9906 39.7464 24.5858 39.5366 24.2875 39.2638C23.9892 38.9911 23.84 38.6342 23.84 38.1932C23.84 37.8267 23.9391 37.5071 24.1373 37.2344C24.3375 36.9595 24.606 36.7464 24.9427 36.5952C25.2814 36.4418 25.6596 36.3651 26.0772 36.3651C26.4991 36.3651 26.8741 36.4407 27.2022 36.592C27.5304 36.7411 27.7903 36.9457 27.9821 37.2056C28.176 37.4656 28.2782 37.7607 28.2889 38.0909H27.5218ZM34.967 36.4545H35.7596V40.7884C35.7596 41.2358 35.6542 41.6353 35.4432 41.9869C35.2344 42.3363 34.9393 42.6122 34.5579 42.8146C34.1765 43.0149 33.7291 43.1151 33.2156 43.1151C32.7021 43.1151 32.2547 43.0149 31.8733 42.8146C31.4919 42.6122 31.1957 42.3363 30.9848 41.9869C30.776 41.6353 30.6716 41.2358 30.6716 40.7884V36.4545H31.4642V40.7244C31.4642 41.044 31.5345 41.3285 31.6751 41.5778C31.8157 41.8249 32.016 42.0199 32.276 42.1626C32.538 42.3033 32.8512 42.3736 33.2156 42.3736C33.5799 42.3736 33.8931 42.3033 34.1552 42.1626C34.4173 42.0199 34.6176 41.8249 34.7561 41.5778C34.8967 41.3285 34.967 41.044 34.967 40.7244V36.4545ZM38.3325 43V36.4545H39.1251V42.2969H42.1677V43H38.3325ZM43.1569 37.1577V36.4545H48.066V37.1577H46.0077V43H45.2151V37.1577H43.1569ZM55.5295 39.7273C55.5295 40.4176 55.4049 41.0142 55.1556 41.517C54.9063 42.0199 54.5643 42.4077 54.1297 42.6804C53.695 42.9531 53.1986 43.0895 52.6403 43.0895C52.0821 43.0895 51.5856 42.9531 51.151 42.6804C50.7163 42.4077 50.3743 42.0199 50.125 41.517C49.8758 41.0142 49.7511 40.4176 49.7511 39.7273C49.7511 39.0369 49.8758 38.4403 50.125 37.9375C50.3743 37.4347 50.7163 37.0469 51.151 36.7741C51.5856 36.5014 52.0821 36.3651 52.6403 36.3651C53.1986 36.3651 53.695 36.5014 54.1297 36.7741C54.5643 37.0469 54.9063 37.4347 55.1556 37.9375C55.4049 38.4403 55.5295 39.0369 55.5295 39.7273ZM54.7625 39.7273C54.7625 39.1605 54.6677 38.6822 54.478 38.2923C54.2905 37.9023 54.0359 37.6072 53.7142 37.407C53.3946 37.2067 53.0366 37.1065 52.6403 37.1065C52.244 37.1065 51.885 37.2067 51.5633 37.407C51.2437 37.6072 50.989 37.9023 50.7994 38.2923C50.6119 38.6822 50.5182 39.1605 50.5182 39.7273C50.5182 40.294 50.6119 40.7724 50.7994 41.1623C50.989 41.5522 51.2437 41.8473 51.5633 42.0476C51.885 42.2479 52.244 42.348 52.6403 42.348C53.0366 42.348 53.3946 42.2479 53.7142 42.0476C54.0359 41.8473 54.2905 41.5522 54.478 41.1623C54.6677 40.7724 54.7625 40.294 54.7625 39.7273ZM57.8523 43V36.4545H60.0639C60.5753 36.4545 60.995 36.5419 61.3231 36.7166C61.6513 36.8892 61.8942 37.1268 62.0518 37.4293C62.2095 37.7319 62.2883 38.076 62.2883 38.4616C62.2883 38.8473 62.2095 39.1893 62.0518 39.4876C61.8942 39.7859 61.6523 40.0202 61.3263 40.1907C61.0003 40.359 60.5838 40.4432 60.0767 40.4432H58.2869V39.7273H60.0511C60.4006 39.7273 60.6818 39.6761 60.8949 39.5739C61.1101 39.4716 61.2656 39.3267 61.3615 39.1392C61.4595 38.9496 61.5085 38.7237 61.5085 38.4616C61.5085 38.1996 61.4595 37.9705 61.3615 37.7745C61.2635 37.5785 61.1069 37.4272 60.8917 37.3207C60.6765 37.212 60.392 37.1577 60.0383 37.1577H58.6449V43H57.8523ZM60.9332 40.0597L62.544 43H61.6236L60.0383 40.0597H60.9332ZM65.3917 36.4545V43H64.5991V36.4545H65.3917ZM68.2394 43H67.4084L69.8118 36.4545H70.63L73.0334 43H72.2025L70.2465 37.4901H70.1954L68.2394 43ZM68.5462 40.4432H71.8957V41.1463H68.5462V40.4432ZM78.5642 43V36.4545H82.5145V37.1577H79.3568V39.3693H82.31V40.0724H79.3568V42.2969H82.5656V43H78.5642ZM88.7228 43H87.8919L90.2953 36.4545H91.1135L93.5169 43H92.6859L90.7299 37.4901H90.6788L88.7228 43ZM89.0297 40.4432H92.3791V41.1463H89.0297V40.4432ZM99.8219 36.4545H100.614V40.7884C100.614 41.2358 100.509 41.6353 100.298 41.9869C100.089 42.3363 99.7942 42.6122 99.4128 42.8146C99.0314 43.0149 98.5839 43.1151 98.0704 43.1151C97.5569 43.1151 97.1095 43.0149 96.7281 42.8146C96.3467 42.6122 96.0505 42.3363 95.8396 41.9869C95.6308 41.6353 95.5264 41.2358 95.5264 40.7884V36.4545H96.319V40.7244C96.319 41.044 96.3893 41.3285 96.53 41.5778C96.6706 41.8249 96.8709 42.0199 97.1308 42.1626C97.3929 42.3033 97.7061 42.3736 98.0704 42.3736C98.4348 42.3736 98.748 42.3033 99.0101 42.1626C99.2721 42.0199 99.4724 41.8249 99.6109 41.5778C99.7515 41.3285 99.8219 41.044 99.8219 40.7244V36.4545ZM105.207 43H103.187V36.4545H105.297C105.932 36.4545 106.475 36.5856 106.927 36.8477C107.378 37.1076 107.725 37.4815 107.965 37.9695C108.206 38.4553 108.327 39.0369 108.327 39.7145C108.327 40.3963 108.205 40.9833 107.962 41.4755C107.719 41.9656 107.366 42.3427 106.901 42.6069C106.437 42.869 105.872 43 105.207 43ZM103.98 42.2969H105.156C105.697 42.2969 106.146 42.1925 106.502 41.9837C106.857 41.7749 107.123 41.4776 107.297 41.092C107.472 40.7063 107.559 40.2472 107.559 39.7145C107.559 39.1861 107.473 38.7312 107.301 38.3498C107.128 37.9663 106.87 37.6722 106.527 37.4677C106.184 37.261 105.757 37.1577 105.246 37.1577H103.98V42.2969ZM111.439 36.4545V43H110.646V36.4545H111.439ZM113.66 37.1577V36.4545H118.569V37.1577H116.511V43H115.718V37.1577H113.66ZM126.033 39.7273C126.033 40.4176 125.908 41.0142 125.659 41.517C125.409 42.0199 125.067 42.4077 124.633 42.6804C124.198 42.9531 123.702 43.0895 123.143 43.0895C122.585 43.0895 122.089 42.9531 121.654 42.6804C121.219 42.4077 120.877 42.0199 120.628 41.517C120.379 41.0142 120.254 40.4176 120.254 39.7273C120.254 39.0369 120.379 38.4403 120.628 37.9375C120.877 37.4347 121.219 37.0469 121.654 36.7741C122.089 36.5014 122.585 36.3651 123.143 36.3651C123.702 36.3651 124.198 36.5014 124.633 36.7741C125.067 37.0469 125.409 37.4347 125.659 37.9375C125.908 38.4403 126.033 39.0369 126.033 39.7273ZM125.266 39.7273C125.266 39.1605 125.171 38.6822 124.981 38.2923C124.794 37.9023 124.539 37.6072 124.217 37.407C123.898 37.2067 123.54 37.1065 123.143 37.1065C122.747 37.1065 122.388 37.2067 122.066 37.407C121.747 37.6072 121.492 37.9023 121.302 38.2923C121.115 38.6822 121.021 39.1605 121.021 39.7273C121.021 40.294 121.115 40.7724 121.302 41.1623C121.492 41.5522 121.747 41.8473 122.066 42.0476C122.388 42.2479 122.747 42.348 123.143 42.348C123.54 42.348 123.898 42.2479 124.217 42.0476C124.539 41.8473 124.794 41.5522 124.981 41.1623C125.171 40.7724 125.266 40.294 125.266 39.7273ZM128.355 43V36.4545H130.567C131.078 36.4545 131.498 36.5419 131.826 36.7166C132.154 36.8892 132.397 37.1268 132.555 37.4293C132.713 37.7319 132.791 38.076 132.791 38.4616C132.791 38.8473 132.713 39.1893 132.555 39.4876C132.397 39.7859 132.155 40.0202 131.829 40.1907C131.503 40.359 131.087 40.4432 130.58 40.4432H128.79V39.7273H130.554C130.904 39.7273 131.185 39.6761 131.398 39.5739C131.613 39.4716 131.769 39.3267 131.865 39.1392C131.963 38.9496 132.012 38.7237 132.012 38.4616C132.012 38.1996 131.963 37.9705 131.865 37.7745C131.767 37.5785 131.61 37.4272 131.395 37.3207C131.18 37.212 130.895 37.1577 130.541 37.1577H129.148V43H128.355ZM131.436 40.0597L133.047 43H132.127L130.541 40.0597H131.436ZM135.895 36.4545V43H135.102V36.4545H135.895ZM138.742 43H137.911L140.315 36.4545H141.133L143.536 43H142.706L140.75 37.4901H140.698L138.742 43ZM139.049 40.4432H142.399V41.1463H139.049V40.4432ZM149.336 43H148.505L150.908 36.4545H151.726L154.13 43H153.299L151.343 37.4901H151.292L149.336 43ZM149.643 40.4432H152.992V41.1463H149.643V40.4432ZM160.306 38.5C160.236 38.2848 160.143 38.092 160.028 37.9215C159.915 37.7489 159.78 37.6019 159.622 37.4805C159.467 37.359 159.29 37.2663 159.092 37.2024C158.893 37.1385 158.676 37.1065 158.44 37.1065C158.052 37.1065 157.699 37.2067 157.382 37.407C157.064 37.6072 156.812 37.9023 156.624 38.2923C156.437 38.6822 156.343 39.1605 156.343 39.7273C156.343 40.294 156.438 40.7724 156.627 41.1623C156.817 41.5522 157.074 41.8473 157.398 42.0476C157.722 42.2479 158.086 42.348 158.491 42.348C158.866 42.348 159.196 42.2681 159.482 42.1083C159.769 41.9464 159.993 41.7184 160.153 41.4244C160.315 41.1282 160.396 40.7798 160.396 40.3793L160.638 40.4304H158.67V39.7273H161.163V40.4304C161.163 40.9695 161.048 41.4382 160.817 41.8366C160.589 42.2351 160.274 42.544 159.871 42.7635C159.471 42.9808 159.011 43.0895 158.491 43.0895C157.911 43.0895 157.402 42.9531 156.963 42.6804C156.526 42.4077 156.185 42.0199 155.94 41.517C155.697 41.0142 155.576 40.4176 155.576 39.7273C155.576 39.2095 155.645 38.744 155.784 38.3306C155.924 37.9151 156.123 37.5614 156.378 37.2695C156.634 36.9776 156.936 36.7539 157.286 36.5984C157.635 36.4428 158.02 36.3651 158.44 36.3651C158.785 36.3651 159.107 36.4173 159.405 36.5217C159.705 36.6239 159.973 36.7699 160.207 36.9595C160.444 37.147 160.641 37.3718 160.798 37.6339C160.956 37.8938 161.065 38.1825 161.124 38.5H160.306ZM163.51 43V36.4545H165.722C166.233 36.4545 166.653 36.5419 166.981 36.7166C167.309 36.8892 167.552 37.1268 167.71 37.4293C167.867 37.7319 167.946 38.076 167.946 38.4616C167.946 38.8473 167.867 39.1893 167.71 39.4876C167.552 39.7859 167.31 40.0202 166.984 40.1907C166.658 40.359 166.242 40.4432 165.735 40.4432H163.945V39.7273H165.709C166.058 39.7273 166.34 39.6761 166.553 39.5739C166.768 39.4716 166.924 39.3267 167.019 39.1392C167.117 38.9496 167.166 38.7237 167.166 38.4616C167.166 38.1996 167.117 37.9705 167.019 37.7745C166.921 37.5785 166.765 37.4272 166.55 37.3207C166.334 37.212 166.05 37.1577 165.696 37.1577H164.303V43H163.51ZM166.591 40.0597L168.202 43H167.281L165.696 40.0597H166.591ZM171.05 36.4545V43H170.257V36.4545H171.05ZM170.308 35.7898L171.088 34.3068H171.97L170.973 35.7898H170.308ZM178.896 38.5H178.103C178.056 38.272 177.974 38.0717 177.857 37.8991C177.742 37.7266 177.601 37.5817 177.435 37.4645C177.271 37.3452 177.089 37.2557 176.889 37.196C176.688 37.1364 176.48 37.1065 176.262 37.1065C175.866 37.1065 175.507 37.2067 175.185 37.407C174.866 37.6072 174.611 37.9023 174.421 38.2923C174.234 38.6822 174.14 39.1605 174.14 39.7273C174.14 40.294 174.234 40.7724 174.421 41.1623C174.611 41.5522 174.866 41.8473 175.185 42.0476C175.507 42.2479 175.866 42.348 176.262 42.348C176.48 42.348 176.688 42.3182 176.889 42.2585C177.089 42.1989 177.271 42.1104 177.435 41.9933C177.601 41.8739 177.742 41.728 177.857 41.5554C177.974 41.3807 178.056 41.1804 178.103 40.9545H178.896C178.836 41.2891 178.728 41.5884 178.57 41.8526C178.412 42.1168 178.216 42.3416 177.982 42.527C177.747 42.7102 177.484 42.8498 177.192 42.9457C176.903 43.0415 176.593 43.0895 176.262 43.0895C175.704 43.0895 175.208 42.9531 174.773 42.6804C174.338 42.4077 173.996 42.0199 173.747 41.517C173.498 41.0142 173.373 40.4176 173.373 39.7273C173.373 39.0369 173.498 38.4403 173.747 37.9375C173.996 37.4347 174.338 37.0469 174.773 36.7741C175.208 36.5014 175.704 36.3651 176.262 36.3651C176.593 36.3651 176.903 36.413 177.192 36.5089C177.484 36.6048 177.747 36.7454 177.982 36.9308C178.216 37.114 178.412 37.3377 178.57 37.6019C178.728 37.864 178.836 38.1634 178.896 38.5ZM186.689 39.7273C186.689 40.4176 186.565 41.0142 186.315 41.517C186.066 42.0199 185.724 42.4077 185.29 42.6804C184.855 42.9531 184.358 43.0895 183.8 43.0895C183.242 43.0895 182.746 42.9531 182.311 42.6804C181.876 42.4077 181.534 42.0199 181.285 41.517C181.036 41.0142 180.911 40.4176 180.911 39.7273C180.911 39.0369 181.036 38.4403 181.285 37.9375C181.534 37.4347 181.876 37.0469 182.311 36.7741C182.746 36.5014 183.242 36.3651 183.8 36.3651C184.358 36.3651 184.855 36.5014 185.29 36.7741C185.724 37.0469 186.066 37.4347 186.315 37.9375C186.565 38.4403 186.689 39.0369 186.689 39.7273ZM185.922 39.7273C185.922 39.1605 185.828 38.6822 185.638 38.2923C185.45 37.9023 185.196 37.6072 184.874 37.407C184.554 37.2067 184.197 37.1065 183.8 37.1065C183.404 37.1065 183.045 37.2067 182.723 37.407C182.404 37.6072 182.149 37.9023 181.959 38.2923C181.772 38.6822 181.678 39.1605 181.678 39.7273C181.678 40.294 181.772 40.7724 181.959 41.1623C182.149 41.5522 182.404 41.8473 182.723 42.0476C183.045 42.2479 183.404 42.348 183.8 42.348C184.197 42.348 184.554 42.2479 184.874 42.0476C185.196 41.8473 185.45 41.5522 185.638 41.1623C185.828 40.7724 185.922 40.294 185.922 39.7273ZM189.012 43V36.4545H189.805V42.2969H192.847V43H189.012ZM195.746 43H194.915L197.319 36.4545H198.137L200.54 43H199.709L197.753 37.4901H197.702L195.746 43ZM196.053 40.4432H199.402V41.1463H196.053V40.4432Z" fill="white"/>
<path d="M11.7045 12C11.5483 11.5218 11.3423 11.0933 11.0866 10.7145C10.8357 10.331 10.535 10.0043 10.1847 9.73438C9.83902 9.46449 9.44602 9.25852 9.00568 9.11648C8.56534 8.97443 8.08239 8.90341 7.55682 8.90341C6.69508 8.90341 5.91146 9.12595 5.20597 9.57102C4.50047 10.0161 3.93939 10.6719 3.52273 11.5384C3.10606 12.4048 2.89773 13.4678 2.89773 14.7273C2.89773 15.9867 3.10843 17.0497 3.52983 17.9162C3.95123 18.7827 4.52178 19.4384 5.24148 19.8835C5.96117 20.3286 6.77083 20.5511 7.67045 20.5511C8.50379 20.5511 9.23769 20.3736 9.87216 20.0185C10.5114 19.6586 11.0085 19.152 11.3636 18.4986C11.7235 17.8404 11.9034 17.0663 11.9034 16.1761L12.4432 16.2898H8.06818V14.7273H13.608V16.2898C13.608 17.4877 13.3523 18.5294 12.8409 19.4148C12.3343 20.3002 11.6335 20.9867 10.7386 21.4744C9.84848 21.9574 8.82576 22.1989 7.67045 22.1989C6.38258 22.1989 5.25095 21.8958 4.27557 21.2898C3.30492 20.6837 2.54735 19.822 2.00284 18.7045C1.46307 17.5871 1.19318 16.2614 1.19318 14.7273C1.19318 13.5767 1.34706 12.5421 1.65483 11.6236C1.96733 10.7003 2.40767 9.9143 2.97585 9.26562C3.54403 8.61695 4.21638 8.11979 4.9929 7.77415C5.76941 7.4285 6.62405 7.25568 7.55682 7.25568C8.32386 7.25568 9.03883 7.37169 9.7017 7.60369C10.3693 7.83097 10.9635 8.1553 11.4844 8.5767C12.0099 8.99337 12.4479 9.4929 12.7983 10.0753C13.1487 10.6529 13.3902 11.2945 13.5227 12H11.7045ZM18.0735 7.45455V22H16.3974V7.45455H18.0735ZM25.5753 22.2273C24.5904 22.2273 23.7263 21.9929 22.983 21.5241C22.2443 21.0554 21.6667 20.3996 21.25 19.5568C20.8381 18.714 20.6321 17.7292 20.6321 16.6023C20.6321 15.4659 20.8381 14.474 21.25 13.6264C21.6667 12.7789 22.2443 12.1207 22.983 11.652C23.7263 11.1832 24.5904 10.9489 25.5753 10.9489C26.5601 10.9489 27.4219 11.1832 28.1605 11.652C28.9039 12.1207 29.4815 12.7789 29.8935 13.6264C30.3101 14.474 30.5185 15.4659 30.5185 16.6023C30.5185 17.7292 30.3101 18.714 29.8935 19.5568C29.4815 20.3996 28.9039 21.0554 28.1605 21.5241C27.4219 21.9929 26.5601 22.2273 25.5753 22.2273ZM25.5753 20.7216C26.3234 20.7216 26.9389 20.5298 27.4219 20.1463C27.9048 19.7628 28.2623 19.2585 28.4943 18.6335C28.7263 18.0085 28.8423 17.3314 28.8423 16.6023C28.8423 15.8731 28.7263 15.1937 28.4943 14.5639C28.2623 13.9342 27.9048 13.4252 27.4219 13.0369C26.9389 12.6487 26.3234 12.4545 25.5753 12.4545C24.8272 12.4545 24.2116 12.6487 23.7287 13.0369C23.2457 13.4252 22.8883 13.9342 22.6562 14.5639C22.4242 15.1937 22.3082 15.8731 22.3082 16.6023C22.3082 17.3314 22.4242 18.0085 22.6562 18.6335C22.8883 19.2585 23.2457 19.7628 23.7287 20.1463C24.2116 20.5298 24.8272 20.7216 25.5753 20.7216ZM33.3043 22V7.45455H34.9805V12.8239H35.1225C35.2456 12.6345 35.4161 12.393 35.6339 12.0994C35.8564 11.8011 36.1737 11.536 36.5856 11.304C37.0022 11.0672 37.5657 10.9489 38.2759 10.9489C39.1945 10.9489 40.0041 11.1785 40.7049 11.6378C41.4057 12.0971 41.9525 12.7481 42.3455 13.5909C42.7385 14.4337 42.935 15.428 42.935 16.5739C42.935 17.7292 42.7385 18.7306 42.3455 19.5781C41.9525 20.4209 41.408 21.0743 40.712 21.5384C40.016 21.9976 39.2134 22.2273 38.3043 22.2273C37.6036 22.2273 37.0425 22.1113 36.6211 21.8793C36.1997 21.6425 35.8754 21.375 35.6481 21.0767C35.4208 20.7737 35.2456 20.5227 35.1225 20.3239H34.9237V22H33.3043ZM34.9521 16.5455C34.9521 17.3693 35.0728 18.0961 35.3143 18.7259C35.5558 19.3509 35.9085 19.8409 36.3725 20.196C36.8365 20.5464 37.4047 20.7216 38.0771 20.7216C38.7778 20.7216 39.3626 20.5369 39.8313 20.1676C40.3048 19.7936 40.6599 19.2917 40.8967 18.6619C41.1381 18.0275 41.2589 17.322 41.2589 16.5455C41.2589 15.7784 41.1405 15.0871 40.9038 14.4716C40.6718 13.8513 40.319 13.3613 39.8455 13.0014C39.3768 12.6368 38.7873 12.4545 38.0771 12.4545C37.3952 12.4545 36.8223 12.6274 36.3583 12.973C35.8943 13.3139 35.5439 13.7921 35.3072 14.4077C35.0704 15.0185 34.9521 15.7311 34.9521 16.5455ZM48.7092 22.2557C48.0179 22.2557 47.3905 22.1255 46.8271 21.8651C46.2636 21.5999 45.8162 21.2188 45.4847 20.7216C45.1533 20.2197 44.9876 19.6136 44.9876 18.9034C44.9876 18.2784 45.1107 17.7718 45.3569 17.3835C45.6031 16.9905 45.9322 16.6828 46.3441 16.4602C46.756 16.2377 47.2106 16.072 47.7077 15.9631C48.2096 15.8494 48.7139 15.7595 49.2205 15.6932C49.8834 15.608 50.4208 15.544 50.8327 15.5014C51.2494 15.4541 51.5524 15.3759 51.7418 15.267C51.936 15.1581 52.033 14.9687 52.033 14.6989V14.642C52.033 13.9413 51.8413 13.3968 51.4577 13.0085C51.079 12.6203 50.5037 12.4261 49.7319 12.4261C48.9317 12.4261 48.3043 12.6013 47.8498 12.9517C47.3952 13.3021 47.0756 13.6761 46.891 14.0739L45.3001 13.5057C45.5842 12.8428 45.9629 12.3267 46.4364 11.9574C46.9147 11.5833 47.4355 11.3229 47.9989 11.1761C48.5671 11.0246 49.1258 10.9489 49.6751 10.9489C50.0254 10.9489 50.4279 10.9915 50.8825 11.0767C51.3417 11.1572 51.7844 11.3253 52.2106 11.581C52.6415 11.8366 52.9989 12.2225 53.283 12.7386C53.5671 13.2547 53.7092 13.946 53.7092 14.8125V22H52.033V20.5227H51.9478C51.8342 20.7595 51.6448 21.0128 51.3796 21.2827C51.1145 21.5526 50.7617 21.7822 50.3214 21.9716C49.881 22.161 49.3436 22.2557 48.7092 22.2557ZM48.9648 20.75C49.6277 20.75 50.1864 20.6198 50.641 20.3594C51.1003 20.099 51.4459 19.7628 51.6779 19.3509C51.9147 18.9389 52.033 18.5057 52.033 18.0511V16.517C51.962 16.6023 51.8058 16.6804 51.5643 16.7514C51.3275 16.8177 51.0529 16.8769 50.7404 16.929C50.4326 16.9763 50.132 17.0189 49.8384 17.0568C49.5496 17.09 49.3152 17.1184 49.1353 17.142C48.6997 17.1989 48.2925 17.2912 47.9137 17.419C47.5397 17.5421 47.2366 17.7292 47.0046 17.9801C46.7773 18.2263 46.6637 18.5625 46.6637 18.9886C46.6637 19.571 46.8791 20.0114 47.31 20.3097C47.7456 20.6032 48.2972 20.75 48.9648 20.75ZM58.4446 7.45455V22H56.7685V7.45455H58.4446Z" fill="white"/>
<path d="M77.3395 11.4531C77.2732 10.8329 76.9938 10.3499 76.5014 10.0043C76.0137 9.65862 75.3793 9.4858 74.598 9.4858C74.0488 9.4858 73.5777 9.56866 73.1847 9.73438C72.7917 9.90009 72.491 10.125 72.2827 10.4091C72.0743 10.6932 71.9678 11.0175 71.9631 11.3821C71.9631 11.6851 72.0317 11.9479 72.169 12.1705C72.3111 12.393 72.5028 12.5824 72.7443 12.7386C72.9858 12.8902 73.2533 13.018 73.5469 13.1222C73.8404 13.2263 74.1364 13.3139 74.4347 13.3849L75.7983 13.7259C76.3475 13.8537 76.8755 14.0265 77.3821 14.2443C77.8935 14.4621 78.3504 14.7367 78.7528 15.0682C79.16 15.3996 79.482 15.7997 79.7188 16.2685C79.9555 16.7372 80.0739 17.2865 80.0739 17.9162C80.0739 18.7685 79.8561 19.5189 79.4205 20.1676C78.9848 20.8116 78.3551 21.3158 77.5312 21.6804C76.7121 22.0402 75.7202 22.2202 74.5554 22.2202C73.4238 22.2202 72.4413 22.045 71.608 21.6946C70.7794 21.3442 70.1307 20.8329 69.6619 20.1605C69.1979 19.4882 68.947 18.669 68.9091 17.7031H71.5014C71.5393 18.2098 71.6955 18.6312 71.9702 18.9673C72.2448 19.3035 72.6023 19.5545 73.0426 19.7202C73.4877 19.8859 73.9848 19.9688 74.5341 19.9688C75.107 19.9688 75.6089 19.8835 76.0398 19.7131C76.4754 19.5379 76.8163 19.2964 77.0625 18.9886C77.3087 18.6761 77.4342 18.3116 77.4389 17.8949C77.4342 17.5161 77.3229 17.2036 77.1051 16.9574C76.8873 16.7064 76.5819 16.4981 76.1889 16.3324C75.8007 16.1619 75.3461 16.0104 74.8253 15.8778L73.1705 15.4517C71.9725 15.1439 71.0256 14.6776 70.3295 14.0526C69.6383 13.4228 69.2926 12.5871 69.2926 11.5455C69.2926 10.6884 69.5246 9.93797 69.9886 9.29403C70.4574 8.65009 71.0942 8.15057 71.8991 7.79545C72.7041 7.43561 73.6155 7.25568 74.6335 7.25568C75.6657 7.25568 76.5701 7.43561 77.3466 7.79545C78.1278 8.15057 78.741 8.64536 79.1861 9.27983C79.6312 9.90956 79.8608 10.634 79.875 11.4531H77.3395ZM89.2624 17.4119V11.0909H91.8335V22H89.3406V20.0611H89.2269C88.9807 20.6719 88.5759 21.1714 88.0124 21.5597C87.4537 21.9479 86.7648 22.142 85.9457 22.142C85.2307 22.142 84.5986 21.9834 84.0494 21.6662C83.5049 21.3442 83.0787 20.8778 82.771 20.267C82.4632 19.6515 82.3093 18.9081 82.3093 18.0369V11.0909H84.8803V17.6392C84.8803 18.3305 85.0697 18.8797 85.4485 19.2869C85.8273 19.6941 86.3245 19.8977 86.94 19.8977C87.3188 19.8977 87.6857 19.8054 88.0408 19.6207C88.396 19.4361 88.6871 19.1615 88.9144 18.7969C89.1464 18.4276 89.2624 17.9659 89.2624 17.4119ZM103.099 13.9744L100.756 14.2301C100.689 13.9934 100.573 13.7708 100.408 13.5625C100.247 13.3542 100.029 13.1861 99.7543 13.0582C99.4796 12.9304 99.1435 12.8665 98.7457 12.8665C98.2107 12.8665 97.7609 12.9825 97.3963 13.2145C97.0365 13.4465 96.8589 13.7472 96.8636 14.1165C96.8589 14.4337 96.9749 14.6918 97.2116 14.8906C97.4531 15.0895 97.8509 15.2528 98.4048 15.3807L100.266 15.7784C101.298 16.0009 102.065 16.3537 102.567 16.8366C103.073 17.3196 103.329 17.9517 103.334 18.733C103.329 19.4195 103.128 20.0256 102.73 20.5511C102.337 21.072 101.79 21.4792 101.089 21.7727C100.389 22.0663 99.5838 22.2131 98.6747 22.2131C97.3395 22.2131 96.2647 21.9337 95.4503 21.375C94.6359 20.8116 94.1506 20.0279 93.9943 19.0241L96.5014 18.7827C96.6151 19.2751 96.8565 19.6468 97.2259 19.8977C97.5952 20.1487 98.0758 20.2741 98.6676 20.2741C99.2784 20.2741 99.7685 20.1487 100.138 19.8977C100.512 19.6468 100.699 19.3366 100.699 18.9673C100.699 18.6548 100.578 18.3968 100.337 18.1932C100.1 17.9896 99.7306 17.8333 99.2287 17.7244L97.3679 17.3338C96.3215 17.116 95.5473 16.7491 95.0455 16.233C94.5436 15.7121 94.295 15.054 94.2997 14.2585C94.295 13.5862 94.4773 13.0038 94.8466 12.5114C95.2206 12.0142 95.7391 11.6307 96.402 11.3608C97.0696 11.0862 97.839 10.9489 98.7102 10.9489C99.9886 10.9489 100.995 11.2211 101.729 11.7656C102.467 12.3101 102.924 13.0464 103.099 13.9744ZM110.901 11.0909V13.0795H104.63V11.0909H110.901ZM106.178 8.47727H108.749V18.7188C108.749 19.0644 108.801 19.3295 108.906 19.5142C109.014 19.6941 109.156 19.8172 109.332 19.8835C109.507 19.9498 109.701 19.983 109.914 19.983C110.075 19.983 110.222 19.9711 110.354 19.9474C110.492 19.9238 110.596 19.9025 110.667 19.8835L111.1 21.8935C110.963 21.9408 110.766 21.9929 110.511 22.0497C110.26 22.1065 109.952 22.1397 109.587 22.1491C108.943 22.1681 108.363 22.071 107.847 21.858C107.331 21.6402 106.922 21.304 106.619 20.8494C106.32 20.3949 106.174 19.8267 106.178 19.1449V8.47727ZM116.191 22.2202C115.499 22.2202 114.877 22.0971 114.323 21.8509C113.774 21.5999 113.338 21.2306 113.016 20.7429C112.699 20.2552 112.54 19.6539 112.54 18.9389C112.54 18.3234 112.654 17.8144 112.881 17.4119C113.108 17.0095 113.418 16.6875 113.811 16.446C114.204 16.2045 114.647 16.0223 115.14 15.8991C115.637 15.7713 116.15 15.679 116.681 15.6222C117.32 15.5559 117.838 15.4967 118.236 15.4446C118.634 15.3878 118.923 15.3026 119.103 15.1889C119.287 15.0705 119.38 14.8883 119.38 14.642V14.5994C119.38 14.0644 119.221 13.6501 118.904 13.3565C118.587 13.063 118.13 12.9162 117.533 12.9162C116.903 12.9162 116.404 13.0535 116.034 13.3281C115.67 13.6027 115.424 13.9271 115.296 14.3011L112.895 13.9602C113.085 13.2973 113.397 12.7434 113.833 12.2983C114.268 11.8485 114.801 11.5123 115.431 11.2898C116.06 11.0625 116.757 10.9489 117.519 10.9489C118.044 10.9489 118.568 11.0104 119.088 11.1335C119.609 11.2566 120.085 11.4602 120.516 11.7443C120.947 12.0237 121.292 12.4048 121.553 12.8878C121.818 13.3707 121.951 13.9744 121.951 14.6989V22H119.479V20.5014H119.394C119.238 20.8045 119.017 21.0885 118.733 21.3537C118.454 21.6141 118.101 21.8248 117.675 21.9858C117.254 22.142 116.759 22.2202 116.191 22.2202ZM116.858 20.331C117.374 20.331 117.822 20.2292 118.201 20.0256C118.579 19.8172 118.871 19.5426 119.074 19.2017C119.283 18.8608 119.387 18.4891 119.387 18.0866V16.8011C119.306 16.8674 119.169 16.929 118.975 16.9858C118.785 17.0426 118.572 17.0923 118.336 17.1349C118.099 17.1776 117.864 17.2154 117.632 17.2486C117.4 17.2817 117.199 17.3101 117.029 17.3338C116.645 17.3859 116.302 17.4711 115.999 17.5895C115.696 17.7079 115.457 17.8736 115.282 18.0866C115.106 18.295 115.019 18.5649 115.019 18.8963C115.019 19.3698 115.192 19.7273 115.537 19.9688C115.883 20.2102 116.323 20.331 116.858 20.331ZM124.536 22V11.0909H127.107V22H124.536ZM125.828 9.54261C125.421 9.54261 125.071 9.40767 124.777 9.13778C124.484 8.86316 124.337 8.53409 124.337 8.15057C124.337 7.76231 124.484 7.43324 124.777 7.16335C125.071 6.88873 125.421 6.75142 125.828 6.75142C126.24 6.75142 126.591 6.88873 126.88 7.16335C127.173 7.43324 127.32 7.76231 127.32 8.15057C127.32 8.53409 127.173 8.86316 126.88 9.13778C126.591 9.40767 126.24 9.54261 125.828 9.54261ZM132.322 15.608V22H129.751V11.0909H132.208V12.9446H132.336C132.587 12.3338 132.987 11.8485 133.536 11.4886C134.09 11.1288 134.774 10.9489 135.589 10.9489C136.342 10.9489 136.997 11.1098 137.556 11.4318C138.12 11.7538 138.555 12.2202 138.863 12.831C139.175 13.4418 139.329 14.1828 139.325 15.054V22H136.754V15.4517C136.754 14.7225 136.564 14.152 136.185 13.7401C135.811 13.3281 135.293 13.1222 134.63 13.1222C134.18 13.1222 133.78 13.2216 133.43 13.4205C133.084 13.6146 132.812 13.8963 132.613 14.2656C132.419 14.6349 132.322 15.0824 132.322 15.608ZM145.077 22.2202C144.386 22.2202 143.763 22.0971 143.21 21.8509C142.66 21.5999 142.225 21.2306 141.903 20.7429C141.585 20.2552 141.427 19.6539 141.427 18.9389C141.427 18.3234 141.54 17.8144 141.768 17.4119C141.995 17.0095 142.305 16.6875 142.698 16.446C143.091 16.2045 143.534 16.0223 144.026 15.8991C144.523 15.7713 145.037 15.679 145.567 15.6222C146.207 15.5559 146.725 15.4967 147.123 15.4446C147.521 15.3878 147.809 15.3026 147.989 15.1889C148.174 15.0705 148.266 14.8883 148.266 14.642V14.5994C148.266 14.0644 148.108 13.6501 147.79 13.3565C147.473 13.063 147.016 12.9162 146.42 12.9162C145.79 12.9162 145.29 13.0535 144.921 13.3281C144.557 13.6027 144.31 13.9271 144.183 14.3011L141.782 13.9602C141.971 13.2973 142.284 12.7434 142.719 12.2983C143.155 11.8485 143.688 11.5123 144.317 11.2898C144.947 11.0625 145.643 10.9489 146.406 10.9489C146.931 10.9489 147.454 11.0104 147.975 11.1335C148.496 11.2566 148.972 11.4602 149.403 11.7443C149.834 12.0237 150.179 12.4048 150.44 12.8878C150.705 13.3707 150.837 13.9744 150.837 14.6989V22H148.366V20.5014H148.281C148.124 20.8045 147.904 21.0885 147.62 21.3537C147.341 21.6141 146.988 21.8248 146.562 21.9858C146.14 22.142 145.646 22.2202 145.077 22.2202ZM145.745 20.331C146.261 20.331 146.709 20.2292 147.087 20.0256C147.466 19.8172 147.757 19.5426 147.961 19.2017C148.169 18.8608 148.273 18.4891 148.273 18.0866V16.8011C148.193 16.8674 148.056 16.929 147.862 16.9858C147.672 17.0426 147.459 17.0923 147.222 17.1349C146.986 17.1776 146.751 17.2154 146.519 17.2486C146.287 17.2817 146.086 17.3101 145.915 17.3338C145.532 17.3859 145.189 17.4711 144.886 17.5895C144.583 17.7079 144.344 17.8736 144.168 18.0866C143.993 18.295 143.906 18.5649 143.906 18.8963C143.906 19.3698 144.078 19.7273 144.424 19.9688C144.77 20.2102 145.21 20.331 145.745 20.331ZM153.536 22V7.45455H156.107V12.8949H156.214C156.346 12.6297 156.533 12.348 156.775 12.0497C157.016 11.7467 157.343 11.4886 157.755 11.2756C158.167 11.0578 158.692 10.9489 159.332 10.9489C160.174 10.9489 160.934 11.1643 161.612 11.5952C162.293 12.0213 162.833 12.6534 163.231 13.4915C163.633 14.3248 163.835 15.3475 163.835 16.5597C163.835 17.7576 163.638 18.7756 163.245 19.6136C162.852 20.4517 162.317 21.0909 161.64 21.5312C160.963 21.9716 160.196 22.1918 159.339 22.1918C158.714 22.1918 158.195 22.0876 157.783 21.8793C157.371 21.6709 157.04 21.42 156.789 21.1264C156.543 20.8281 156.351 20.5464 156.214 20.2812H156.065V22H153.536ZM156.058 16.5455C156.058 17.2509 156.157 17.8688 156.356 18.3991C156.559 18.9295 156.851 19.3437 157.229 19.642C157.613 19.9356 158.077 20.0824 158.621 20.0824C159.19 20.0824 159.665 19.9309 160.049 19.6278C160.433 19.3201 160.721 18.901 160.915 18.3707C161.114 17.8357 161.214 17.2273 161.214 16.5455C161.214 15.8684 161.117 15.267 160.923 14.7415C160.728 14.2159 160.44 13.804 160.056 13.5057C159.673 13.2074 159.194 13.0582 158.621 13.0582C158.072 13.0582 157.606 13.2027 157.222 13.4915C156.839 13.7803 156.548 14.1851 156.349 14.706C156.155 15.2268 156.058 15.84 156.058 16.5455ZM166.02 22V11.0909H168.591V22H166.02ZM167.313 9.54261C166.906 9.54261 166.555 9.40767 166.262 9.13778C165.968 8.86316 165.821 8.53409 165.821 8.15057C165.821 7.76231 165.968 7.43324 166.262 7.16335C166.555 6.88873 166.906 6.75142 167.313 6.75142C167.725 6.75142 168.075 6.88873 168.364 7.16335C168.658 7.43324 168.804 7.76231 168.804 8.15057C168.804 8.53409 168.658 8.86316 168.364 9.13778C168.075 9.40767 167.725 9.54261 167.313 9.54261ZM173.806 7.45455V22H171.235V7.45455H173.806ZM176.45 22V11.0909H179.021V22H176.45ZM177.743 9.54261C177.335 9.54261 176.985 9.40767 176.691 9.13778C176.398 8.86316 176.251 8.53409 176.251 8.15057C176.251 7.76231 176.398 7.43324 176.691 7.16335C176.985 6.88873 177.335 6.75142 177.743 6.75142C178.154 6.75142 178.505 6.88873 178.794 7.16335C179.087 7.43324 179.234 7.76231 179.234 8.15057C179.234 8.53409 179.087 8.86316 178.794 9.13778C178.505 9.40767 178.154 9.54261 177.743 9.54261ZM187.112 11.0909V13.0795H180.841V11.0909H187.112ZM182.389 8.47727H184.96V18.7188C184.96 19.0644 185.012 19.3295 185.116 19.5142C185.225 19.6941 185.367 19.8172 185.543 19.8835C185.718 19.9498 185.912 19.983 186.125 19.983C186.286 19.983 186.433 19.9711 186.565 19.9474C186.703 19.9238 186.807 19.9025 186.878 19.8835L187.311 21.8935C187.174 21.9408 186.977 21.9929 186.722 22.0497C186.471 22.1065 186.163 22.1397 185.798 22.1491C185.154 22.1681 184.574 22.071 184.058 21.858C183.542 21.6402 183.133 21.304 182.83 20.8494C182.531 20.3949 182.384 19.8267 182.389 19.1449V8.47727ZM190.86 26.0909C190.51 26.0909 190.186 26.0625 189.887 26.0057C189.594 25.9536 189.359 25.892 189.184 25.821L189.781 23.8182C190.155 23.9271 190.489 23.9792 190.782 23.9744C191.076 23.9697 191.334 23.8774 191.556 23.6974C191.784 23.5223 191.975 23.2287 192.132 22.8168L192.352 22.2273L188.396 11.0909H191.123L193.637 19.3295H193.751L196.272 11.0909H199.007L194.639 23.321C194.435 23.8987 194.165 24.3935 193.829 24.8054C193.493 25.2221 193.081 25.5393 192.593 25.7571C192.11 25.9796 191.533 26.0909 190.86 26.0909Z" fill="white"/>
<rect x="1" y="30" width="2" height="200" transform="rotate(-90 1 30)" fill="white"/>
</svg>
