<svg width="32" height="32" viewBox="0 0 32 32" fill="none" xmlns="http://www.w3.org/2000/svg">
<path d="M12.9128 10.8978C12.8539 10.8354 12.8079 10.7621 12.7773 10.6819C12.7467 10.6018 12.7322 10.5164 12.7347 10.4307C12.7371 10.3449 12.7564 10.2605 12.7914 10.1822C12.8265 10.1039 12.8766 10.0333 12.939 9.97435C13.0013 9.91543 13.0747 9.86937 13.1548 9.83879C13.235 9.80822 13.3203 9.79373 13.4061 9.79616C13.4918 9.79859 13.5763 9.81788 13.6546 9.85293C13.7329 9.88799 13.8035 9.93812 13.8624 10.0005L19.4134 15.878C19.528 15.9993 19.5919 16.1598 19.5919 16.3267C19.5919 16.4935 19.528 16.6541 19.4134 16.7753L13.8624 22.6535C13.8039 22.7172 13.7333 22.7687 13.6547 22.8049C13.5761 22.8411 13.4911 22.8613 13.4046 22.8644C13.3182 22.8674 13.232 22.8533 13.151 22.8228C13.0701 22.7923 12.996 22.7459 12.9331 22.6865C12.8702 22.6271 12.8197 22.5558 12.7846 22.4768C12.7495 22.3977 12.7304 22.3124 12.7285 22.2259C12.7267 22.1395 12.742 22.0534 12.7736 21.9729C12.8053 21.8924 12.8526 21.819 12.9128 21.7569L18.0407 16.3267L12.9128 10.8978Z" fill="black"/>
<path fill-rule="evenodd" clip-rule="evenodd" d="M16 1.28C7.87037 1.28 1.28 7.87037 1.28 16C1.28 24.1296 7.87037 30.72 16 30.72C24.1296 30.72 30.72 24.1296 30.72 16C30.72 7.87037 24.1296 1.28 16 1.28ZM16 -1.39876e-06C7.16345 -2.17128e-06 2.17128e-06 7.16344 1.39876e-06 16C6.26248e-07 24.8366 7.16344 32 16 32C24.8366 32 32 24.8366 32 16C32 7.16344 24.8366 -6.26248e-07 16 -1.39876e-06Z" fill="black"/>
</svg>
