<svg width="32" height="32" viewBox="0 0 32 32" fill="none" xmlns="http://www.w3.org/2000/svg">
<path d="M19.087 21.1022C19.146 21.1646 19.192 21.2379 19.2226 21.3181C19.2532 21.3982 19.2677 21.4836 19.2652 21.5693C19.2628 21.6551 19.2435 21.7395 19.2085 21.8178C19.1734 21.8961 19.1233 21.9667 19.0609 22.0257C18.9986 22.0846 18.9252 22.1306 18.8451 22.1612C18.7649 22.1918 18.6795 22.2063 18.5938 22.2038C18.508 22.2014 18.4236 22.1821 18.3453 22.1471C18.267 22.112 18.1964 22.0619 18.1375 21.9995L12.5865 16.122C12.4718 16.0007 12.408 15.8402 12.408 15.6733C12.408 15.5065 12.4718 15.3459 12.5865 15.2247L18.1375 9.34647C18.196 9.28276 18.2666 9.23131 18.3452 9.19511C18.4238 9.15892 18.5088 9.13869 18.5952 9.13562C18.6817 9.13255 18.7679 9.14669 18.8489 9.17722C18.9298 9.20775 19.0039 9.25405 19.0668 9.31345C19.1297 9.37285 19.1802 9.44416 19.2153 9.52323C19.2504 9.6023 19.2694 9.68756 19.2713 9.77405C19.2732 9.86055 19.2579 9.94656 19.2263 10.0271C19.1946 10.1076 19.1473 10.181 19.087 10.2431L13.9592 15.6733L19.087 21.1022Z" fill="black"/>
<path fill-rule="evenodd" clip-rule="evenodd" d="M16 30.72C24.1296 30.72 30.72 24.1296 30.72 16C30.72 7.87037 24.1296 1.28 16 1.28C7.87037 1.28 1.28 7.87037 1.28 16C1.28 24.1296 7.87037 30.72 16 30.72ZM16 32C24.8366 32 32 24.8366 32 16C32 7.16344 24.8366 0 16 0C7.16344 0 0 7.16344 0 16C0 24.8366 7.16344 32 16 32Z" fill="black"/>
</svg>
