<svg width="50" height="40" viewBox="0 0 50 40" fill="none" xmlns="http://www.w3.org/2000/svg">
<path d="M18.2944 30.568C18.2944 33.276 17.4461 35.525 15.7497 37.315C14.099 39.105 11.8982 40 9.14718 40C6.442 40 4.24117 39.1968 2.5447 37.5904C0.848235 35.938 0 33.276 0 29.6041C0 25.7487 1.44429 21.1819 4.33287 15.9036C7.26731 10.6254 11.2334 5.32415 16.2311 0L22.5585 5.3012C22.1917 5.76018 21.4122 6.88468 20.2201 8.6747C19.028 10.4647 17.8588 12.4842 16.7125 14.7332C15.6121 16.9363 15.0619 18.7722 15.0619 20.241C15.0619 21.1589 15.4975 22.3982 16.3686 23.9587C17.6983 26.3913 18.3402 28.5944 18.2944 30.568ZM45.8047 30.568C45.8047 33.276 44.9564 35.525 43.26 37.315C41.5635 39.105 39.3627 40 36.6575 40C33.9523 40 31.7286 39.1968 29.9862 37.5904C28.2898 35.938 27.4415 33.276 27.4415 29.6041C27.4415 25.7487 28.8858 21.1819 31.7744 15.9036C34.7089 10.6254 38.6749 5.32415 43.6726 0L50 5.3012C49.6332 5.76018 48.8537 6.88468 47.6616 8.6747C46.5154 10.4647 45.3691 12.4842 44.2228 14.7332C43.1224 16.9363 42.5722 18.7722 42.5722 20.241C42.5722 21.1589 42.9849 22.3982 43.8102 23.9587C45.1398 26.3913 45.8047 28.5944 45.8047 30.568Z" fill="#40AB58" fill-opacity="0.5"/>
</svg>
