<svg width="16" height="16" viewBox="0 0 16 16" fill="none" xmlns="http://www.w3.org/2000/svg">
<path fill-rule="evenodd" clip-rule="evenodd" d="M5.71429 0C5.18385 0 4.67515 0.210714 4.30007 0.585786C3.925 0.960859 3.71429 1.46957 3.71429 2V3.42857H2.28571C1.67951 3.42857 1.09812 3.66939 0.66947 4.09804C0.240816 4.5267 0 5.10808 0 5.71429V13.7143C0 14.3205 0.240816 14.9019 0.66947 15.3305C1.09812 15.7592 1.67951 16 2.28571 16H13.7143C14.3205 16 14.9019 15.7592 15.3305 15.3305C15.7592 14.9019 16 14.3205 16 13.7143V5.71429C16 5.10808 15.7592 4.5267 15.3305 4.09804C14.9019 3.66939 14.3205 3.42857 13.7143 3.42857H12.2857V2C12.2857 1.46957 12.075 0.960859 11.6999 0.585786C11.3249 0.210714 10.8161 0 10.2857 0H5.71429ZM10.5714 3.42857V2C10.5714 1.92422 10.5413 1.85155 10.4877 1.79797C10.4342 1.74439 10.3615 1.71429 10.2857 1.71429H5.71429C5.63851 1.71429 5.56584 1.74439 5.51226 1.79797C5.45867 1.85155 5.42857 1.92422 5.42857 2V3.42857H10.5714ZM2.28571 5.14286H13.7143C13.8658 5.14286 14.0112 5.20306 14.1183 5.31023C14.2255 5.41739 14.2857 5.56273 14.2857 5.71429V6.85714H1.71429V5.71429C1.71429 5.56273 1.77449 5.41739 1.88165 5.31023C1.98882 5.20306 2.13416 5.14286 2.28571 5.14286ZM1.71429 8.57143V13.7143C1.71429 13.8658 1.77449 14.0112 1.88165 14.1183C1.98882 14.2255 2.13416 14.2857 2.28571 14.2857H13.7143C13.8658 14.2857 14.0112 14.2255 14.1183 14.1183C14.2255 14.0112 14.2857 13.8658 14.2857 13.7143V8.57143H9.14286V10.2857H6.85714V8.57143H1.71429Z" fill="white"/>
</svg>
